<mxfile host="app.diagrams.net" modified="2024-05-29T00:02:31.152Z" agent="Mozilla/5.0 (Windows NT 10.0; Win64; x64) AppleWebKit/537.36 (KHTML, like Gecko) Chrome/125.0.0.0 Safari/537.36" version="24.4.9" etag="ke3KoNagxKNY-mf9sBlK" type="github">
  <diagram name="Page-1" id="KpXzw_3h4aMZ_OUDDL74">
    <mxGraphModel>
      <root>
        <mxCell id="0" />
        <mxCell id="1" parent="0" />
      </root>
    </mxGraphModel>
  </diagram>
</mxfile>
